HIERARCHY
ROOT Hips
{
	OFFSET 2.433734 86.173073 3.643662
	CHANNELS 6 Xposition Yposition Zposition Zrotation Yrotation Xrotation 
	JOINT Spine
	{
		OFFSET -0.000000 8.814246 -2.080107
		CHANNELS 3 Zrotation Yrotation Xrotation
		JOINT Spine1
		{
			OFFSET 0.000000 8.844141 0.000000
			CHANNELS 3 Zrotation Yrotation Xrotation
			JOINT Spine2
			{
				OFFSET 0.000000 11.682268 -0.000000
				CHANNELS 3 Zrotation Yrotation Xrotation
				JOINT Spine3
				{
					OFFSET -0.000000 11.746700 -0.000000
					CHANNELS 3 Zrotation Yrotation Xrotation
					JOINT Neck
					{
						OFFSET -0.000000 17.658264 0.000000
						CHANNELS 3 Zrotation Yrotation Xrotation
						JOINT Neck1
						{
							OFFSET -0.000000 5.101515 -0.000000
							CHANNELS 3 Zrotation Yrotation Xrotation
							JOINT Head
							{
								OFFSET 0.000000 5.101515 -0.000000
								CHANNELS 3 Zrotation Yrotation Xrotation
								JOINT HeadEnd
								{
									OFFSET -0.000000 11.655085 -0.000000
									CHANNELS 3 Zrotation Yrotation Xrotation
									End Site
									{
										OFFSET 0.000000 0.000000 0.000000
									}
								}
							}
						}
					}
					JOINT RightShoulder
					{
						OFFSET -2.625389 11.175210 -0.000000
						CHANNELS 3 Zrotation Yrotation Xrotation
						JOINT RightArm
						{
							OFFSET -0.000000 10.434715 0.000000
							CHANNELS 3 Zrotation Yrotation Xrotation
							JOINT RightForeArm
							{
								OFFSET 0.000000 29.628420 -0.000000
								CHANNELS 3 Zrotation Yrotation Xrotation
								JOINT RightHand
								{
									OFFSET 0.000000 22.857611 0.000000
									CHANNELS 3 Zrotation Yrotation Xrotation
									JOINT RightHandThumb1
									{
										OFFSET -2.867323 3.959563 2.944291
										CHANNELS 3 Zrotation Yrotation Xrotation
										JOINT RightHandThumb2
										{
											OFFSET 0.000000 3.350399 0.000000
											CHANNELS 3 Zrotation Yrotation Xrotation
											JOINT RightHandThumb3
											{
												OFFSET -0.000000 3.756509 -0.000000
												CHANNELS 3 Zrotation Yrotation Xrotation
												JOINT RightHandThumb4
												{
													OFFSET -0.000000 3.147345 -0.000000
													CHANNELS 3 Zrotation Yrotation Xrotation
													End Site
													{
														OFFSET 0.000000 0.000000 0.000000
													}
												}
											}
										}
									}
									JOINT RightHandIndex1
									{
										OFFSET -0.086752 10.030893 2.345280
										CHANNELS 3 Zrotation Yrotation Xrotation
										JOINT RightHandIndex2
										{
											OFFSET -0.000000 4.061090 0.000000
											CHANNELS 3 Zrotation Yrotation Xrotation
											JOINT RightHandIndex3
											{
												OFFSET 0.000000 3.248873 0.000000
												CHANNELS 3 Zrotation Yrotation Xrotation
												JOINT RightHandIndex4
												{
													OFFSET 0.000000 2.639709 0.000000
													CHANNELS 3 Zrotation Yrotation Xrotation
													End Site
													{
														OFFSET 0.000000 0.000000 0.000000
													}
												}
											}
										}
									}
									JOINT RightHandMiddle1
									{
										OFFSET 0.104102 9.502952 0.006768
										CHANNELS 3 Zrotation Yrotation Xrotation
										JOINT RightHandMiddle2
										{
											OFFSET -0.000000 4.568727 -0.000000
											CHANNELS 3 Zrotation Yrotation Xrotation
											JOINT RightHandMiddle3
											{
												OFFSET -0.000000 3.654981 0.000000
												CHANNELS 3 Zrotation Yrotation Xrotation
												JOINT RightHandMiddle4
												{
													OFFSET 0.000000 2.741236 0.000000
													CHANNELS 3 Zrotation Yrotation Xrotation
													End Site
													{
														OFFSET 0.000000 0.000000 0.000000
													}
												}
											}
										}
									}
									JOINT RightHandRing1
									{
										OFFSET 0.086752 8.921708 -2.267442
										CHANNELS 3 Zrotation Yrotation Xrotation
										JOINT RightHandRing2
										{
											OFFSET -0.000000 4.061090 -0.000000
											CHANNELS 3 Zrotation Yrotation Xrotation
											JOINT RightHandRing3
											{
												OFFSET 0.000000 3.654981 0.000000
												CHANNELS 3 Zrotation Yrotation Xrotation
												JOINT RightHandRing4
												{
													OFFSET -0.000000 2.741236 -0.000000
													CHANNELS 3 Zrotation Yrotation Xrotation
													End Site
													{
														OFFSET 0.000000 0.000000 0.000000
													}
												}
											}
										}
									}
									JOINT RightHandPinky1
									{
										OFFSET -0.173504 7.976997 -4.467199
										CHANNELS 3 Zrotation Yrotation Xrotation
										JOINT RightHandPinky2
										{
											OFFSET 0.000000 3.350399 0.000000
											CHANNELS 3 Zrotation Yrotation Xrotation
											JOINT RightHandPinky3
											{
												OFFSET 0.000000 2.842763 0.000000
												CHANNELS 3 Zrotation Yrotation Xrotation
												JOINT RightHandPinky4
												{
													OFFSET 0.000000 2.639709 0.000000
													CHANNELS 3 Zrotation Yrotation Xrotation
													End Site
													{
														OFFSET 0.000000 0.000000 0.000000
													}
												}
											}
										}
									}
									JOINT RightForeArmEnd
									{
										OFFSET 0.000000 0.000000 0.000000
										CHANNELS 3 Zrotation Yrotation Xrotation
										End Site
										{
											OFFSET 0.000000 0.000000 0.000000
										}
									}
								}
								JOINT RightArmEnd
								{
									OFFSET 0.000000 0.000000 0.000000
									CHANNELS 3 Zrotation Yrotation Xrotation
									End Site
									{
										OFFSET 0.000000 0.000000 0.000000
									}
								}
							}
						}
					}
					JOINT LeftShoulder
					{
						OFFSET 2.625389 11.175210 -0.000000
						CHANNELS 3 Zrotation Yrotation Xrotation
						JOINT LeftArm
						{
							OFFSET 0.000000 10.813635 0.000000
							CHANNELS 3 Zrotation Yrotation Xrotation
							JOINT LeftForeArm
							{
								OFFSET 0.000000 28.724781 0.000000
								CHANNELS 3 Zrotation Yrotation Xrotation
								JOINT LeftHand
								{
									OFFSET 0.644384 25.716167 -0.328871
									CHANNELS 3 Zrotation Yrotation Xrotation
									JOINT LeftHandThumb1
									{
										OFFSET 2.867323 3.959563 2.944291
										CHANNELS 3 Zrotation Yrotation Xrotation
										JOINT LeftHandThumb2
										{
											OFFSET 0.000000 3.350399 0.000000
											CHANNELS 3 Zrotation Yrotation Xrotation
											JOINT LeftHandThumb3
											{
												OFFSET -0.000000 3.756509 -0.000000
												CHANNELS 3 Zrotation Yrotation Xrotation
												JOINT LeftHandThumb4
												{
													OFFSET -0.000000 3.100000 0.000000
													CHANNELS 3 Zrotation Yrotation Xrotation
													End Site
													{
														OFFSET 0.000000 0.000000 0.000000
													}
												}
											}
										}
									}
									JOINT LeftHandIndex1
									{
										OFFSET 0.086752 10.030893 2.345280
										CHANNELS 3 Zrotation Yrotation Xrotation
										JOINT LeftHandIndex2
										{
											OFFSET -0.000000 4.061090 0.000000
											CHANNELS 3 Zrotation Yrotation Xrotation
											JOINT LeftHandIndex3
											{
												OFFSET 0.000000 3.248873 0.000000
												CHANNELS 3 Zrotation Yrotation Xrotation
												JOINT LeftHandIndex4
												{
													OFFSET -0.000000 2.639709 0.000000
													CHANNELS 3 Zrotation Yrotation Xrotation
													End Site
													{
														OFFSET 0.000000 0.000000 0.000000
													}
												}
											}
										}
									}
									JOINT LeftHandMiddle1
									{
										OFFSET -0.104102 9.502952 0.006768
										CHANNELS 3 Zrotation Yrotation Xrotation
										JOINT LeftHandMiddle2
										{
											OFFSET -0.000000 4.568727 0.000000
											CHANNELS 3 Zrotation Yrotation Xrotation
											JOINT LeftHandMiddle3
											{
												OFFSET 0.000000 3.654981 -0.000000
												CHANNELS 3 Zrotation Yrotation Xrotation
												JOINT LeftHandMiddle4
												{
													OFFSET -0.000000 2.741236 0.000000
													CHANNELS 3 Zrotation Yrotation Xrotation
													End Site
													{
														OFFSET 0.000000 0.000000 0.000000
													}
												}
											}
										}
									}
									JOINT LeftHandRing1
									{
										OFFSET -0.086752 8.921708 -2.267442
										CHANNELS 3 Zrotation Yrotation Xrotation
										JOINT LeftHandRing2
										{
											OFFSET -0.000000 4.061090 0.000000
											CHANNELS 3 Zrotation Yrotation Xrotation
											JOINT LeftHandRing3
											{
												OFFSET 0.000000 3.654981 0.000000
												CHANNELS 3 Zrotation Yrotation Xrotation
												JOINT LeftHandRing4
												{
													OFFSET 0.000000 2.741236 -0.000000
													CHANNELS 3 Zrotation Yrotation Xrotation
													End Site
													{
														OFFSET 0.000000 0.000000 0.000000
													}
												}
											}
										}
									}
									JOINT LeftHandPinky1
									{
										OFFSET 0.173504 7.976997 -4.467199
										CHANNELS 3 Zrotation Yrotation Xrotation
										JOINT LeftHandPinky2
										{
											OFFSET 0.000000 3.350399 -0.000000
											CHANNELS 3 Zrotation Yrotation Xrotation
											JOINT LeftHandPinky3
											{
												OFFSET -0.000000 2.842763 0.000000
												CHANNELS 3 Zrotation Yrotation Xrotation
												JOINT LeftHandPinky4
												{
													OFFSET -0.000000 2.639709 0.000000
													CHANNELS 3 Zrotation Yrotation Xrotation
													End Site
													{
														OFFSET 0.000000 0.000000 0.000000
													}
												}
											}
										}
									}
									JOINT LeftForeArmEnd
									{
										OFFSET 0.000000 0.000000 0.000000
										CHANNELS 3 Zrotation Yrotation Xrotation
										End Site
										{
											OFFSET 0.000000 0.000000 0.000000
										}
									}
								}
								JOINT LeftArmEnd
								{
									OFFSET 0.000000 0.000000 0.000000
									CHANNELS 3 Zrotation Yrotation Xrotation
									End Site
									{
										OFFSET 0.000000 0.000000 0.000000
									}
								}
							}
						}
					}
				}
			}
		}
	}
	JOINT RightUpLeg
	{
		OFFSET -11.289943 0.000000 0.000000
		CHANNELS 3 Zrotation Yrotation Xrotation
		JOINT RightLeg
		{
			OFFSET -0.000000 -38.200325 0.000000
			CHANNELS 3 Zrotation Yrotation Xrotation
			JOINT RightFoot
			{
				OFFSET -0.000000 -39.900856 -0.000000
				CHANNELS 3 Zrotation Yrotation Xrotation
				JOINT RightToeBase
				{
					OFFSET -0.000000 -0.000000 15.261641
					CHANNELS 3 Zrotation Yrotation Xrotation
					JOINT RightToeBaseEnd
					{
						OFFSET -0.000000 0.000000 7.370709
						CHANNELS 3 Zrotation Yrotation Xrotation
						End Site
						{
							OFFSET 0.000000 0.000000 0.000000
						}
					}
				}
				JOINT RightLegEnd
				{
					OFFSET 0.000000 0.000000 0.000000
					CHANNELS 3 Zrotation Yrotation Xrotation
					End Site
					{
						OFFSET 0.000000 0.000000 0.000000
					}
				}
			}
			JOINT RightUpLegEnd
			{
				OFFSET 0.000000 0.000000 0.000000
				CHANNELS 3 Zrotation Yrotation Xrotation
				End Site
				{
					OFFSET 0.000000 0.000000 0.000000
				}
			}
		}
	}
	JOINT LeftUpLeg
	{
		OFFSET 11.315661 0.000000 -0.000000
		CHANNELS 3 Zrotation Yrotation Xrotation
		JOINT LeftLeg
		{
			OFFSET -0.000000 -38.200325 -0.000000
			CHANNELS 3 Zrotation Yrotation Xrotation
			JOINT LeftFoot
			{
				OFFSET 0.000000 -39.900856 -0.000000
				CHANNELS 3 Zrotation Yrotation Xrotation
				JOINT LeftToeBase
				{
					OFFSET 0.000000 -0.000000 15.261641
					CHANNELS 3 Zrotation Yrotation Xrotation
					JOINT LeftToeBaseEnd
					{
						OFFSET 0.000000 -0.000000 7.539996
						CHANNELS 3 Zrotation Yrotation Xrotation
						End Site
						{
							OFFSET 0.000000 0.000000 0.000000
						}
					}
				}
				JOINT LeftLegEnd
				{
					OFFSET 0.000000 0.000000 0.000000
					CHANNELS 3 Zrotation Yrotation Xrotation
					End Site
					{
						OFFSET 0.000000 0.000000 0.000000
					}
				}
			}
			JOINT LeftUpLegEnd
			{
				OFFSET 0.000000 0.000000 0.000000
				CHANNELS 3 Zrotation Yrotation Xrotation
				End Site
				{
					OFFSET 0.000000 0.000000 0.000000
				}
			}
		}
	}
}
MOTION
Frames: 4
Frame Time: 0.016667
2.433734 86.173073 3.643662 4.299845 0.534881 -7.077621 -8.138910 1.415882 -0.501093 14.969744 -4.986477 10.393132 -18.977310 3.765862 1.451039 4.191943 -0.820174 -0.026746 5.330935 5.319360 10.245767 -3.058134 4.096265 -7.856699 -0.884414 2.925234 -23.483372 0.000000 0.000000 0.000000 96.794540 -0.452405 3.697086 71.595825 -34.005363 -10.252324 2.613487 16.506643 33.556507 4.896970 16.739386 -10.989886 10.039282 -1.787270 40.137463 0.000000 0.000000 -24.480000 0.000000 0.000000 -16.999998 0.000000 0.000000 0.000000 13.474064 0.000000 -9.998755 9.431845 0.000000 0.000000 9.431845 0.000000 0.000000 0.000000 0.000000 0.000000 14.310910 -0.000000 -12.117423 10.017637 0.000000 0.000000 10.017637 0.000000 0.000000 0.000000 0.000000 0.000000 16.702457 -0.000000 -13.374759 11.691720 0.000000 0.000000 11.691720 0.000000 0.000000 0.000000 0.000000 0.000000 18.303183 0.000000 -16.208984 12.812225 0.000000 0.000000 12.812225 0.000000 0.000000 0.000000 0.000000 0.000000 0.000000 0.000000 0.000000 0.000000 0.000000 0.000000 -93.419373 0.305430 3.692236 -58.119640 34.383701 -1.479928 -3.132393 -16.410662 54.021275 0.345754 -19.841892 -14.396711 -7.651653 1.517517 41.228924 0.000000 0.000000 -18.719999 0.000000 0.000000 -13.000000 0.000000 0.000000 0.000000 -7.052994 -0.000000 -11.588723 -4.937097 0.000000 0.000000 -4.937097 0.000000 0.000000 0.000000 0.000000 0.000000 -8.928932 0.000000 -13.154870 -6.250252 0.000000 0.000000 -6.250252 0.000000 0.000000 0.000000 0.000000 0.000000 -13.184094 0.000000 -12.977899 -9.228864 0.000000 0.000000 -9.228864 0.000000 0.000000 0.000000 0.000000 0.000000 -16.410326 -0.000000 -13.409651 -11.487226 0.000000 0.000000 -11.487226 0.000000 0.000000 0.000000 0.000000 0.000000 0.000000 0.000000 0.000000 0.000000 0.000000 0.000000 -16.555935 3.881752 -2.063656 -0.437959 -1.141036 20.999811 8.242569 -11.888932 17.012327 -0.798321 -0.807249 -27.538485 0.000000 0.000000 0.000000 0.000000 0.000000 0.000000 0.000000 0.000000 0.000000 -1.257158 -2.234490 1.752836 0.201865 0.647150 17.324553 2.536021 0.751004 14.193522 -0.373871 0.147749 -28.911346 0.000000 0.000000 0.000000 0.000000 0.000000 0.000000 0.000000 0.000000 0.000000 
0.831182 86.344643 3.506542 3.129741 1.238509 -8.820006 -2.675098 0.609618 5.841187 5.743278 -1.406027 3.789879 -8.771062 2.257685 8.895192 -0.962933 -0.930116 -0.790219 0.825863 5.738071 8.491337 -3.246404 3.288251 -7.432989 -0.447435 3.245583 -21.814861 0.000000 0.000000 0.000000 96.397705 -1.435631 3.441643 71.409706 -33.493496 -10.515456 1.994729 19.875648 37.893845 3.289544 17.395380 -12.796783 10.410860 -1.771320 40.029766 -0.000055 0.000018 -25.547091 0.000030 0.000046 -17.640951 -0.000003 0.000003 -0.000024 13.641747 0.805498 -11.414399 10.321472 0.042663 -0.232271 10.613135 0.099027 -0.260424 -0.000045 0.000018 0.000006 14.773152 0.330584 -12.142529 10.849894 -0.010301 -0.142433 10.802047 0.044213 -0.094427 -0.000007 0.000019 -0.000001 18.551294 -0.444385 -11.478033 12.719036 -0.001680 0.183752 12.672800 -0.074391 0.149760 -0.000016 -0.000520 0.000025 20.871338 -1.242249 -12.871351 14.016094 -0.146678 0.885551 13.743364 -0.302747 0.684632 0.000228 -0.000006 0.000020 0.000000 0.000000 0.000000 0.000000 0.000000 0.000000 -92.545753 0.321132 4.218832 -56.420185 29.576797 3.108574 -2.527165 -13.822762 49.469147 -1.306623 -20.063166 -14.744156 -7.715361 1.528244 41.218712 0.000006 0.000007 -18.847368 -0.000206 -0.000035 -13.018691 -0.001073 -0.000018 0.001920 -6.003225 0.926401 -12.690548 -6.193536 0.000980 0.082754 -6.326230 0.065354 0.067928 0.000032 0.000929 0.000001 -8.000251 0.389381 -13.085026 -7.211640 -0.043009 0.065279 -6.925696 0.022020 0.046669 -0.000864 -0.000056 -0.000285 -13.461860 -0.454652 -11.336162 -10.125201 0.056148 -0.161298 -10.023665 -0.040777 -0.109344 0.000622 0.000009 0.000005 -17.087358 -1.204761 -10.646081 -12.267250 0.041631 -0.560551 -12.136267 -0.155480 -0.485595 0.000109 0.000013 -0.000039 0.000000 0.000000 0.000000 0.000000 0.000000 0.000000 -14.242223 1.856454 -0.309898 -0.399619 -1.199835 20.129169 7.082478 -7.835929 17.830938 -0.571131 -0.355589 -30.733244 0.000000 0.000000 0.000000 0.000000 0.000000 0.000000 0.000000 0.000000 0.000000 0.837450 -1.621217 5.877935 0.268099 1.015977 15.508552 0.449359 -0.593330 14.850979 -0.341117 -0.257778 -29.732594 0.000000 0.000000 0.000000 0.000000 0.000000 0.000000 0.000000 0.000000 0.000000 
-0.273699 86.393570 3.735828 2.620037 1.734332 -9.070635 -2.266278 0.555025 6.060679 5.757590 -1.394290 3.669247 -8.476425 2.192285 9.025997 -0.883062 -0.894798 -0.407103 1.356800 5.392675 8.304144 -3.313184 2.972737 -7.468104 -0.468819 3.233749 -21.722616 0.000000 0.000000 0.000000 96.239090 -1.485309 3.754953 70.229691 -34.686050 -9.681104 1.911106 19.533947 37.447105 3.189609 17.613911 -13.704570 10.500930 -1.785843 39.991749 -0.000045 0.000039 -25.710440 0.000025 0.000036 -17.754137 0.000010 0.000008 -0.000046 13.987309 0.730954 -11.164676 10.562507 0.035050 -0.211429 10.865252 0.088113 -0.251182 -0.000023 0.000026 0.000001 14.954241 0.301839 -12.008398 11.046271 -0.010675 -0.133513 10.994961 0.040482 -0.089361 0.000001 -0.000014 -0.000014 18.559212 -0.408380 -11.349441 12.864683 -0.002817 0.170700 12.798064 -0.068735 0.138389 -0.000025 -0.000822 0.000021 20.636234 -1.143235 -12.793288 14.133043 -0.134901 0.862440 13.865509 -0.278888 0.659546 0.000288 -0.000004 -0.000003 0.000000 0.000000 0.000000 0.000000 0.000000 0.000000 -92.569664 0.358898 4.269485 -57.009197 29.705250 3.137589 -2.460505 -13.795209 49.241394 -1.668425 -18.765661 -15.312499 -7.826555 1.537701 41.161377 -0.000006 0.000019 -19.231464 -0.000199 -0.000037 -13.283563 -0.000939 -0.000015 0.001085 -6.593729 0.854795 -12.567844 -6.509798 -0.002168 0.063333 -6.656831 0.054564 0.055812 0.000034 0.001317 -0.000004 -8.433106 0.362023 -13.001016 -7.524447 -0.041967 0.054795 -7.230006 0.019527 0.038549 -0.000684 -0.000063 -0.000305 -13.786052 -0.422217 -11.186021 -10.424411 0.054733 -0.141007 -10.375618 -0.035469 -0.094406 0.000718 0.000017 0.000007 -17.408779 -1.119704 -10.296659 -12.515141 0.049863 -0.487706 -12.422772 -0.137703 -0.441768 0.000264 0.000023 -0.000044 0.000000 0.000000 0.000000 0.000000 0.000000 0.000000 -12.728533 1.505114 0.809303 -0.373592 -1.176075 19.710926 6.293913 -8.250993 17.255630 -0.537054 -0.310611 -30.214499 0.000000 0.000000 0.000000 0.000000 0.000000 0.000000 0.000000 0.000000 0.000000 2.225410 -2.085478 6.297862 0.295484 1.113592 15.587486 -0.355581 -0.598786 14.873868 -0.174271 -0.300146 -29.683109 0.000000 0.000000 0.000000 0.000000 0.000000 0.000000 0.000000 0.000000 0.000000 
-1.333764 86.417107 3.943008 2.032149 2.319368 -9.285152 -1.847731 0.489788 6.266712 5.848986 -1.393409 3.553832 -8.166933 2.108371 9.227547 -0.768436 -0.874350 -0.136246 2.093244 4.928958 8.221673 -3.369401 2.704753 -7.521667 -0.431499 3.275272 -21.735163 0.000000 0.000000 0.000000 96.055069 -1.511641 3.855948 69.421478 -35.287365 -8.988396 1.849570 19.214485 36.814632 3.162890 17.507494 -14.153075 10.528389 -1.789935 39.991062 -0.000056 0.000041 -25.702095 0.000033 0.000035 -17.738089 0.000012 0.000009 -0.000047 14.141927 0.688056 -11.031845 10.677556 0.027977 -0.196907 10.986880 0.080397 -0.244613 -0.000029 0.000024 0.000005 15.023004 0.284344 -11.953582 11.129353 -0.011304 -0.128925 11.073977 0.037810 -0.086633 0.000003 -0.000008 -0.000018 18.516979 -0.386758 -11.280233 12.909844 -0.001333 0.165186 12.837123 -0.064739 0.135161 -0.000023 -0.000862 0.000022 20.383657 -1.085817 -12.735892 14.111845 -0.121507 0.866743 13.862535 -0.260924 0.658428 0.000391 -0.000006 -0.000004 0.000000 0.000000 0.000000 0.000000 0.000000 0.000000 -92.487648 0.373160 4.227315 -57.662067 29.868372 2.872395 -2.412794 -13.566551 49.341377 -1.781780 -18.040272 -15.541385 -7.891695 1.539719 41.137192 -0.000007 0.000019 -19.442474 -0.000211 -0.000041 -13.439094 -0.001014 -0.000017 0.000446 -7.024897 0.815052 -12.411981 -6.738266 -0.007765 0.051212 -6.903031 0.044692 0.050489 0.000033 0.001635 -0.000006 -8.769699 0.345968 -12.889443 -7.751629 -0.041873 0.048524 -7.433927 0.017358 0.034878 -0.000567 -0.000066 -0.000309 -14.038628 -0.403686 -11.064997 -10.632121 0.055880 -0.123651 -10.605384 -0.030813 -0.082624 0.000568 0.000015 0.000007 -17.648420 -1.075409 -10.084431 -12.682410 0.065126 -0.415600 -12.596386 -0.119585 -0.391718 0.000294 0.000020 -0.000042 0.000000 0.000000 0.000000 0.000000 0.000000 0.000000 -11.195617 0.840879 2.007731 -0.348671 -1.141228 19.286516 5.513296 -9.184396 16.692783 -0.509697 -0.302002 -29.824785 0.000000 0.000000 0.000000 0.000000 0.000000 0.000000 0.000000 0.000000 0.000000 3.742115 -2.667127 6.352312 0.318554 1.164462 16.067404 -1.139929 -0.889266 14.934906 -0.050786 -0.294632 -29.800920 0.000000 0.000000 0.000000 0.000000 0.000000 0.000000 0.000000 0.000000 0.000000 
